<svg width="34" height="34" viewBox="0 0 34 34" fill="none" xmlns="http://www.w3.org/2000/svg">
<circle r="17" transform="matrix(-1 0 0 1 17 17)" fill="#333333"/>
<path d="M21.303 16.4675L16.8222 12.23C16.7486 12.1597 16.661 12.1039 16.5645 12.0659C16.4681 12.0278 16.3646 12.0082 16.2601 12.0082C16.1556 12.0082 16.0521 12.0278 15.9556 12.0659C15.8591 12.1039 15.7716 12.1597 15.698 12.23C15.5505 12.3705 15.4678 12.5606 15.4678 12.7588C15.4678 12.9569 15.5505 13.147 15.698 13.2875L19.6167 17.0375L15.698 20.75C15.5505 20.8905 15.4678 21.0806 15.4678 21.2788C15.4678 21.4769 15.5505 21.667 15.698 21.8075C15.7713 21.8784 15.8587 21.9348 15.9552 21.9734C16.0517 22.012 16.1553 22.0321 16.2601 22.0325C16.3648 22.0321 16.4684 22.012 16.5649 21.9734C16.6614 21.9348 16.7488 21.8784 16.8222 21.8075L21.303 17.57C21.3833 17.4998 21.4475 17.4146 21.4913 17.3197C21.5352 17.2248 21.5578 17.1224 21.5578 17.0188C21.5578 16.9152 21.5352 16.8127 21.4913 16.7179C21.4475 16.623 21.3833 16.5378 21.303 16.4675V16.4675Z" fill="white"/>
</svg>
