<svg width="34" height="34" viewBox="0 0 34 34" fill="none" xmlns="http://www.w3.org/2000/svg">
<circle cx="17" cy="17" r="17" fill="#333333"/>
<path d="M12.697 16.4675L17.1778 12.23C17.2514 12.1597 17.339 12.1039 17.4355 12.0659C17.5319 12.0278 17.6354 12.0082 17.7399 12.0082C17.8444 12.0082 17.9479 12.0278 18.0444 12.0659C18.1409 12.1039 18.2284 12.1597 18.302 12.23C18.4495 12.3705 18.5322 12.5606 18.5322 12.7588C18.5322 12.9569 18.4495 13.147 18.302 13.2875L14.3833 17.0375L18.302 20.75C18.4495 20.8905 18.5322 21.0806 18.5322 21.2788C18.5322 21.4769 18.4495 21.667 18.302 21.8075C18.2287 21.8784 18.1413 21.9348 18.0448 21.9734C17.9483 22.012 17.8447 22.0321 17.7399 22.0325C17.6352 22.0321 17.5316 22.012 17.4351 21.9734C17.3386 21.9348 17.2512 21.8784 17.1778 21.8075L12.697 17.57C12.6167 17.4998 12.5525 17.4146 12.5087 17.3197C12.4648 17.2248 12.4422 17.1224 12.4422 17.0188C12.4422 16.9152 12.4648 16.8127 12.5087 16.7179C12.5525 16.623 12.6167 16.5378 12.697 16.4675V16.4675Z" fill="white"/>
</svg>
