<svg width="12" height="12" viewBox="0 0 12 12" fill="none" xmlns="http://www.w3.org/2000/svg">
<path d="M5.5 1C4.5111 1 3.5444 1.29324 2.72215 1.84265C1.89991 2.39206 1.25904 3.17295 0.880605 4.08658C0.502166 5.00021 0.40315 6.00555 0.596076 6.97545C0.789002 7.94536 1.26521 8.83627 1.96447 9.53553C2.66373 10.2348 3.55465 10.711 4.52455 10.9039C5.49446 11.0969 6.49979 10.9978 7.41342 10.6194C8.32705 10.241 9.10794 9.6001 9.65735 8.77785C10.2068 7.95561 10.5 6.98891 10.5 6C10.5 5.34339 10.3707 4.69321 10.1194 4.08658C9.86812 3.47995 9.49983 2.92876 9.03553 2.46447C8.57124 2.00017 8.02005 1.63188 7.41342 1.3806C6.80679 1.12933 6.15661 1 5.5 1ZM5.5 10C4.70888 10 3.93552 9.7654 3.27772 9.32588C2.61992 8.88635 2.10723 8.26164 1.80448 7.53073C1.50173 6.79983 1.42252 5.99556 1.57686 5.21964C1.7312 4.44371 2.11216 3.73098 2.67157 3.17157C3.23098 2.61216 3.94372 2.2312 4.71964 2.07686C5.49556 1.92252 6.29983 2.00173 7.03074 2.30448C7.76164 2.60723 8.38635 3.11992 8.82588 3.77772C9.2654 4.43552 9.5 5.20887 9.5 6C9.5 7.06087 9.07857 8.07828 8.32843 8.82843C7.57828 9.57857 6.56087 10 5.5 10ZM5.5 3C5.36739 3 5.24022 3.05268 5.14645 3.14645C5.05268 3.24021 5 3.36739 5 3.5V5.71L3.95 6.315C3.85368 6.36958 3.7782 6.45459 3.73539 6.55669C3.69259 6.65879 3.68488 6.77221 3.71347 6.87917C3.74207 6.98612 3.80536 7.08056 3.89341 7.14767C3.98146 7.21478 4.08929 7.25077 4.2 7.25C4.28759 7.25061 4.3738 7.22819 4.45 7.185L5.75 6.435L5.795 6.39L5.875 6.325C5.89455 6.30025 5.91132 6.27342 5.925 6.245C5.9413 6.21816 5.9547 6.18967 5.965 6.16C5.9786 6.12821 5.98704 6.09445 5.99 6.06L6 6V3.5C6 3.36739 5.94732 3.24021 5.85356 3.14645C5.75979 3.05268 5.63261 3 5.5 3Z" fill="#666666"/>
</svg>
