<svg width="33" height="33" viewBox="0 0 33 33" fill="none" xmlns="http://www.w3.org/2000/svg">
<path d="M32.6701 16.5C32.6701 25.4661 25.4035 32.7327 16.4374 32.7327C8.61638 32.7327 2.08568 27.1986 0.551178 19.833L6.99608 22.5423C7.38218 24.4893 9.10808 25.9875 11.2102 25.9677C13.54 25.9446 15.4111 24.0537 15.4243 21.7338C15.4243 21.7305 15.4309 21.7305 15.4342 21.7272L20.305 18.0972C23.4235 18.1302 25.9051 15.6189 25.9051 12.5631C25.9051 9.50403 23.4235 7.02573 20.3677 7.02573C17.3449 7.02573 14.893 9.44793 14.8336 12.4575L11.2663 17.457C10.3621 17.4372 9.55028 17.6847 8.84408 18.1467L0.330078 14.5662C1.28708 6.51423 8.12798 0.267334 16.4374 0.267334C25.4035 0.267334 32.6701 7.53393 32.6701 16.5ZM10.2466 23.9085L8.15768 23.0307C8.67248 24.189 9.83078 25.0074 11.2003 25.0008C13.0219 24.9843 14.4772 23.4993 14.4607 21.681C14.4442 19.8825 12.9691 18.4239 11.1706 18.4239C10.7812 18.4239 10.3984 18.4899 10.0057 18.6417L12.0913 19.5162C13.3057 20.0277 13.8766 21.4236 13.3651 22.638C12.8569 23.8491 11.461 24.4167 10.2466 23.9085ZM20.371 16.3317C18.2986 16.3317 16.609 14.6421 16.609 12.5697C16.609 10.494 18.2986 8.80773 20.371 8.80773C22.4467 8.80773 24.133 10.494 24.133 12.5697C24.133 14.6421 22.4467 16.3317 20.371 16.3317ZM20.371 15.4077C21.9385 15.4077 23.2123 14.1339 23.2123 12.5664C23.2123 10.9989 21.9385 9.72513 20.371 9.72513C18.8035 9.72513 17.5297 11.0022 17.5297 12.5664C17.5264 14.1339 18.8035 15.4077 20.371 15.4077Z" fill="#5C5C5C"/>
</svg>
