<svg width="24" height="24" viewBox="0 0 24 24" fill="none" xmlns="http://www.w3.org/2000/svg">
<path d="M21.7099 4.72L19.2799 2.29C19.0925 2.10375 18.8391 1.99921 18.5749 1.99921C18.3107 1.99921 18.0573 2.10375 17.8699 2.29L12.2899 7.87C12.1972 7.96344 12.1239 8.07425 12.0741 8.19609C12.0244 8.31793 11.9991 8.44839 11.9999 8.58V11C11.9999 11.2652 12.1053 11.5196 12.2928 11.7071C12.4803 11.8946 12.7347 12 12.9999 12H15.4199C15.5515 12.0008 15.682 11.9755 15.8038 11.9258C15.9256 11.876 16.0365 11.8027 16.1299 11.71L21.7099 6.13C21.8961 5.94264 22.0007 5.68919 22.0007 5.425C22.0007 5.16081 21.8961 4.90736 21.7099 4.72ZM14.9999 10H13.9999V9L18.5799 4.42L19.5799 5.42L14.9999 10ZM18.9999 12C18.7347 12 18.4803 12.1054 18.2928 12.2929C18.1053 12.4804 17.9999 12.7348 17.9999 13C17.9999 14.8565 17.2624 16.637 15.9496 17.9497C14.6369 19.2625 12.8564 20 10.9999 20H5.4099L6.0499 19.37C6.14362 19.277 6.21802 19.1664 6.26879 19.0446C6.31956 18.9227 6.34569 18.792 6.34569 18.66C6.34569 18.528 6.31956 18.3973 6.26879 18.2754C6.21802 18.1536 6.14362 18.043 6.0499 17.95C5.07083 16.971 4.40406 15.7237 4.13392 14.3658C3.86378 13.0078 4.00241 11.6003 4.53226 10.3211C5.06212 9.042 5.9594 7.94871 7.11064 7.17955C8.26188 6.41039 9.61535 5.9999 10.9999 6C11.2651 6 11.5195 5.89464 11.707 5.70711C11.8945 5.51957 11.9999 5.26522 11.9999 5C11.9999 4.73478 11.8945 4.48043 11.707 4.29289C11.5195 4.10536 11.2651 4 10.9999 4C9.30736 4.00556 7.6507 4.48828 6.22008 5.39274C4.78947 6.29719 3.64289 7.58673 2.91196 9.11331C2.18104 10.6399 1.8954 12.3417 2.08784 14.0232C2.28028 15.7048 2.94299 17.298 3.9999 18.62L2.2899 20.29C2.15114 20.4306 2.05714 20.6092 2.01977 20.8032C1.98239 20.9972 2.00332 21.1979 2.0799 21.38C2.15492 21.5626 2.28231 21.7189 2.44603 21.8293C2.60975 21.9396 2.80247 21.999 2.9999 22H10.9999C12.1818 22 13.3521 21.7672 14.444 21.3149C15.536 20.8626 16.5281 20.1997 17.3639 19.364C18.1996 18.5282 18.8625 17.5361 19.3148 16.4441C19.7671 15.3522 19.9999 14.1819 19.9999 13C19.9999 12.7348 19.8945 12.4804 19.707 12.2929C19.5195 12.1054 19.2651 12 18.9999 12Z" fill="#494949"/>
</svg>
