<svg width="24" height="24" viewBox="0 0 24 24" fill="none" xmlns="http://www.w3.org/2000/svg">
<path d="M16.4982 18.9978C16.4982 18.9978 15.851 18.23 15.3116 17.5515C16.6148 17.2468 17.7675 16.4942 18.5659 15.4268C17.919 15.8544 17.2253 16.2078 16.4982 16.4801C15.6618 16.8347 14.7871 17.0923 13.8913 17.2479C12.3514 17.5295 10.7722 17.5234 9.23458 17.2301C8.33189 17.0547 7.44722 16.7977 6.59161 16.4624C6.14058 16.2901 5.702 16.0873 5.27898 15.8553C5.22514 15.8196 5.17118 15.8017 5.11724 15.766C5.0902 15.7527 5.06583 15.7345 5.04533 15.7125C4.72172 15.534 4.5419 15.409 4.5419 15.409C5.31135 16.454 6.42428 17.1992 7.6883 17.5157C7.14899 18.1943 6.4837 18.9977 6.4837 18.9977C5.4157 19.0262 4.357 18.7936 3.40077 18.3204C2.44454 17.8472 1.6201 17.1478 1 16.2839C1.05837 12.6643 1.94363 9.10506 3.58901 5.87471C5.03698 4.74539 6.80229 4.09034 8.64121 4L8.82101 4.21432C7.09089 4.6394 5.4764 5.43797 4.09244 6.55319C4.09244 6.55319 4.48796 6.33899 5.15313 6.03545C6.44555 5.4496 7.82298 5.06999 9.23458 4.91062C9.33523 4.88988 9.43751 4.87791 9.54026 4.87486C10.7451 4.719 11.9644 4.70704 13.1721 4.83923C15.0713 5.05462 16.9098 5.63688 18.5838 6.55319C17.27 5.49119 15.7441 4.71832 14.107 4.28574L14.3587 4.00012C16.1976 4.09039 17.9629 4.74545 19.4109 5.87483C21.0563 9.10511 21.9416 12.6643 22 16.2839C21.3749 17.147 20.5469 17.8454 19.588 18.3184C18.6292 18.7913 17.5685 19.0245 16.4982 18.9977V18.9978ZM8.13778 10.6597C7.64969 10.6597 7.18159 10.8523 6.83647 11.195C6.49134 11.5378 6.29745 12.0026 6.29746 12.4873C6.29747 12.972 6.49137 13.4369 6.83651 13.7796C7.18165 14.1223 7.64975 14.3149 8.13784 14.3149C8.62594 14.3149 9.09404 14.1223 9.43918 13.7796C9.78432 13.4369 9.97822 12.972 9.97823 12.4873C9.97824 12.0026 9.78435 11.5378 9.43922 11.195C9.0941 10.8523 8.626 10.6597 8.13791 10.6597H8.13778ZM14.7004 10.6597C14.2985 10.6259 13.8956 10.7134 13.5446 10.9107C13.1936 11.108 12.9108 11.406 12.7332 11.7655C12.5555 12.1251 12.4913 12.5296 12.549 12.926C12.6067 13.3224 12.7836 13.6923 13.0565 13.9872C13.3294 14.2822 13.6856 14.4884 14.0785 14.579C14.4714 14.6695 14.8827 14.6401 15.2585 14.4947C15.6343 14.3493 15.9571 14.0945 16.1847 13.7639C16.4124 13.4332 16.5341 13.042 16.5341 12.6415C16.5449 12.3918 16.5059 12.1424 16.4196 11.9076C16.3332 11.6728 16.2011 11.4573 16.0308 11.2732C15.8605 11.0892 15.6554 10.9403 15.4271 10.835C15.1988 10.7297 14.9518 10.6702 14.7004 10.6597Z" fill="#575757"/>
</svg>
