<svg width="69" height="39" viewBox="0 0 69 39" fill="none" xmlns="http://www.w3.org/2000/svg">
<path d="M3.67969 24.0234H7.59375L6.32812 31.125V31.2422C6.32812 31.5078 6.41406 31.7422 6.58594 31.9453C6.78906 32.1484 7.02344 32.25 7.28906 32.25H9.44531C10.2578 32.25 10.7344 31.8594 10.875 31.0781L16.0781 2.39062H20.0625L14.4609 32.9766C14.3047 33.8359 13.875 34.5547 13.1719 35.1328C12.4688 35.7109 11.6641 36 10.7578 36H5.10938C4.3125 36 3.625 35.7031 3.04688 35.1094C2.46875 34.5156 2.17969 33.8047 2.17969 32.9766V32.3906L3.67969 24.0234ZM22.7812 2.39062H31.8984L31.2422 6.14062H26.1797L24.2812 16.8047H29.3203L28.6172 20.5547H23.6016L21.5156 32.25H26.4844L25.8047 36H16.6875L22.7812 2.39062ZM30.75 36L36.1875 6.1875H33.3047L33.9844 2.39062H43.7578L43.0312 6.1875H40.2422L34.8516 36H30.75Z" fill="#FF0000"/>
<path d="M41.6494 34.9336L43.0576 27.0859C43.1032 26.8307 43.2285 26.6188 43.4336 26.4502C43.6387 26.2816 43.8688 26.1973 44.124 26.1973H45.7852C46.0221 26.1973 46.2249 26.2839 46.3936 26.457C46.5667 26.6302 46.6533 26.8421 46.6533 27.0928C46.6533 27.1566 46.6488 27.2067 46.6396 27.2432L46.2021 29.6836H45.0674L45.4365 27.626V27.585C45.4365 27.5029 45.4092 27.4346 45.3545 27.3799C45.2998 27.3298 45.2314 27.3047 45.1494 27.3047H44.5137C44.418 27.3047 44.3291 27.3366 44.2471 27.4004C44.1696 27.4596 44.1217 27.5348 44.1035 27.626L42.8525 34.5645V34.5986C42.8525 34.6761 42.8799 34.7445 42.9346 34.8037C42.9893 34.863 43.0576 34.8926 43.1396 34.8926H43.7686C44.0055 34.8926 44.1445 34.7786 44.1855 34.5508L44.7461 31.5566H44.0967L44.2949 30.4629H46.0791L45.2314 35.1045C45.1859 35.3597 45.0583 35.5739 44.8486 35.7471C44.6436 35.9157 44.4111 36 44.1514 36H42.5176C42.276 36 42.071 35.9134 41.9023 35.7402C41.7337 35.5625 41.6494 35.3506 41.6494 35.1045V34.9336ZM45.6279 36L48.8613 26.1973H50.0371L49.7295 36H48.6152L48.6973 34.3867H47.3574L46.8789 36H45.6279ZM48.752 33.2793L48.9707 28.9385L47.6855 33.2793H48.752ZM52.0947 26.1973H53.5029L53.4277 33.2588L55.793 26.1973H57.4199L55.6426 36H54.46L55.5469 29.8818L53.4824 36H52.4844L52.5596 29.8066L51.4932 36H50.3105L52.0947 26.1973ZM57.6455 36H56.4629L58.2471 26.1973H59.4229L57.6455 36ZM58.4727 36L60.25 26.1973H61.4326C61.7881 29.7337 61.9658 32.2288 61.9658 33.6826C62.0114 32.3975 62.3669 29.9023 63.0322 26.1973H64.2148L62.4375 36H61.2549C60.904 32.4772 60.7285 30.0413 60.7285 28.6924C60.6829 29.8226 60.3275 32.2585 59.6621 36H58.4727ZM63.4424 34.9336L64.8506 27.0859C64.8962 26.8307 65.0215 26.6188 65.2266 26.4502C65.4316 26.2816 65.6618 26.1973 65.917 26.1973H67.5781C67.8151 26.1973 68.0179 26.2839 68.1865 26.457C68.3597 26.6302 68.4463 26.8421 68.4463 27.0928C68.4463 27.1566 68.4417 27.2067 68.4326 27.2432L67.9951 29.6836H66.8604L67.2295 27.626V27.585C67.2295 27.5029 67.2021 27.4346 67.1475 27.3799C67.0928 27.3298 67.0244 27.3047 66.9424 27.3047H66.3066C66.2109 27.3047 66.1221 27.3366 66.04 27.4004C65.9626 27.4596 65.9147 27.5348 65.8965 27.626L64.6455 34.5645V34.5986C64.6455 34.6761 64.6729 34.7445 64.7275 34.8037C64.7822 34.863 64.8506 34.8926 64.9326 34.8926H65.5615C65.7985 34.8926 65.9375 34.7786 65.9785 34.5508L66.5391 31.5566H65.8896L66.0879 30.4629H67.8721L67.0244 35.1045C66.9788 35.3597 66.8512 35.5739 66.6416 35.7471C66.4365 35.9157 66.2041 36 65.9443 36H64.3105C64.069 36 63.8639 35.9134 63.6953 35.7402C63.5267 35.5625 63.4424 35.3506 63.4424 35.1045V34.9336Z" fill="black"/>
</svg>
